<svg width="29" height="30" viewBox="0 0 29 30" fill="none" xmlns="http://www.w3.org/2000/svg">
<path d="M25.0263 8.7714L13.8421 15M13.8421 15L2.65786 8.7714M13.8421 15V27.5304M16.4737 26.7243L14.8645 27.6205C14.4913 27.8283 14.3047 27.9321 14.1072 27.9729C13.9322 28.009 13.752 28.009 13.5771 27.9729C13.3795 27.9321 13.1929 27.8283 12.8197 27.6205L3.08286 22.198C2.68876 21.9785 2.49168 21.8688 2.3482 21.7126C2.22126 21.5746 2.1252 21.4109 2.06642 21.2326C2 21.0311 2 20.8051 2 20.3531V9.64681C2 9.19487 2 8.9689 2.06642 8.76736C2.1252 8.58906 2.22126 8.4254 2.3482 8.28731C2.49168 8.13123 2.68875 8.02149 3.08286 7.80201L12.8197 2.37951C13.1929 2.17169 13.3795 2.06778 13.5771 2.02704C13.752 1.99099 13.9322 1.99099 14.1072 2.02704C14.3047 2.06778 14.4913 2.17169 14.8645 2.37951L24.6013 7.80201C24.9955 8.02149 25.1925 8.13123 25.3361 8.28731C25.4629 8.4254 25.5591 8.58906 25.6178 8.76736C25.6842 8.9689 25.6842 9.19487 25.6842 9.64681V16.319M7.92105 5.10758L19.7632 11.7025M19.1053 22.9139H27M23 26.7243V19.5" stroke="#8A52EB" stroke-width="2.7" stroke-linecap="round" stroke-linejoin="round"/>
</svg>
