<svg width="20" height="25" viewBox="0 0 20 25" fill="none" xmlns="http://www.w3.org/2000/svg">
<path fill-rule="evenodd" clip-rule="evenodd" d="M7.65169 6.09177e-07H12.3485C13.9115 -2.26466e-05 15.1713 -4.58471e-05 16.162 0.135489C17.1907 0.27621 18.0568 0.577245 18.7447 1.27715C19.4327 1.97706 19.7285 2.8583 19.8669 3.90494C20 4.91305 20 6.19481 20 7.78504V17.215C20 18.8052 20 20.087 19.8669 21.0951C19.7285 22.1417 19.4327 23.0229 18.7447 23.7229C18.0568 24.4228 17.1907 24.7238 16.162 24.8645C15.1713 25 13.9114 25 12.3485 25H7.65171C6.08876 25 4.82897 25 3.83817 24.8645C2.80949 24.7238 1.94335 24.4228 1.25546 23.7229C0.567558 23.0229 0.271687 22.1417 0.13338 21.0951C0.0891518 20.7603 0.0596093 20.3956 0.0398838 19.9993C-0.00477856 19.8558 -0.0134756 19.6991 0.0216555 19.5428C0.00018143 18.8545 0.000192897 18.0803 0.000215754 17.215V7.78504C0.000192897 6.19481 0.000169965 4.91305 0.13338 3.90494C0.271687 2.8583 0.567558 1.97706 1.25546 1.27715C1.94335 0.577245 2.80949 0.27621 3.83816 0.135489C4.82897 -4.58471e-05 6.08875 -2.26466e-05 7.65169 6.09177e-07ZM1.74505 19.7664C1.76242 20.1778 1.78966 20.5395 1.83236 20.8627C1.94511 21.7159 2.15132 22.1677 2.46763 22.4895C2.78392 22.8114 3.228 23.0212 4.06659 23.1359C4.92984 23.254 6.07395 23.2558 7.71443 23.2558H12.2858C13.9262 23.2558 15.0703 23.254 15.9336 23.1359C16.7722 23.0212 17.2163 22.8114 17.5326 22.4895C17.7569 22.2613 17.9259 21.9676 18.0454 21.5116H5.42873C4.95534 21.5116 4.57159 21.1212 4.57159 20.6395C4.57159 20.1579 4.95534 19.7674 5.42873 19.7674H18.2551C18.2762 19.2663 18.2829 18.6914 18.2848 18.0233H5.31189C4.19391 18.0233 3.80304 18.0307 3.50352 18.1124C2.68145 18.3365 2.0261 18.9583 1.74505 19.7664ZM18.2857 16.2791H5.31189C5.26713 16.2791 5.22302 16.2791 5.17956 16.2791C4.24475 16.2787 3.60687 16.2785 3.05984 16.4277C2.57072 16.561 2.11703 16.7788 1.71448 17.065V7.84884C1.71448 6.17974 1.7163 5.01566 1.83236 4.13735C1.94511 3.28413 2.15132 2.83229 2.46763 2.51048C2.78392 2.18866 3.228 1.97884 4.06659 1.86413C4.92984 1.74604 6.07395 1.74419 7.71443 1.74419H12.2858C13.9262 1.74419 15.0703 1.74604 15.9336 1.86413C16.7722 1.97884 17.2163 2.18866 17.5326 2.51048C17.8488 2.83229 18.0551 3.28413 18.1678 4.13735C18.2839 5.01566 18.2857 6.17974 18.2857 7.84884V16.2791ZM4.57159 6.68605C4.57159 6.20441 4.95534 5.81395 5.42873 5.81395H14.5715C15.0449 5.81395 15.4286 6.20441 15.4286 6.68605C15.4286 7.16769 15.0449 7.55814 14.5715 7.55814H5.42873C4.95534 7.55814 4.57159 7.16769 4.57159 6.68605ZM4.57159 10.7558C4.57159 10.2742 4.95534 9.88372 5.42873 9.88372H11.143C11.6163 9.88372 12.0001 10.2742 12.0001 10.7558C12.0001 11.2374 11.6163 11.6279 11.143 11.6279H5.42873C4.95534 11.6279 4.57159 11.2374 4.57159 10.7558Z" fill="#8A52EB"/>
</svg>
