<svg width="25" height="25" viewBox="0 0 25 25" fill="none" xmlns="http://www.w3.org/2000/svg">
<path fill-rule="evenodd" clip-rule="evenodd" d="M9.04965 5.19057L5.18191 9.05831C4.88894 9.35136 4.72437 9.74877 4.72437 10.1632C4.72437 10.5775 4.88894 10.9749 5.18191 11.268L9.04965 15.1357C9.19479 15.281 9.36714 15.3963 9.55685 15.4749C9.74656 15.5536 9.94991 15.5941 10.1553 15.5941C10.3606 15.5941 10.564 15.5536 10.7537 15.4749C10.9434 15.3963 11.1158 15.281 11.2609 15.1357L15.1271 11.268C15.42 10.9749 15.5846 10.5775 15.5846 10.1632C15.5846 9.74877 15.42 9.35136 15.1271 9.05831L11.2609 5.19057C11.1158 5.04527 10.9434 4.93 10.7537 4.85136C10.564 4.77272 10.3606 4.73224 10.1553 4.73224C9.94991 4.73224 9.74656 4.77272 9.55685 4.85136C9.36714 4.93 9.19479 5.04527 9.04965 5.19057ZM10.1545 12.926L7.39316 10.1632L10.1545 7.40026L12.9174 10.1632L10.1545 12.926Z" fill="#8A52EB"/>
<path fill-rule="evenodd" clip-rule="evenodd" d="M1.45144e-06 10.1631C-0.00122679 7.86469 0.777097 5.63377 2.2078 3.8349C3.63851 2.03602 5.637 0.775547 7.87675 0.259421C10.1165 -0.256705 12.4651 0.00203495 14.5388 0.993365C16.6124 1.98469 18.2886 3.65 19.2934 5.71719C20.7479 6.42626 22.012 7.47256 22.9803 8.76896C23.9487 10.0654 24.5933 11.5743 24.8605 13.1703C25.1278 14.7662 25.0098 16.4029 24.5166 17.944C24.0234 19.4851 23.1691 20.8861 22.0249 22.0303C20.8807 23.1745 19.4797 24.0288 17.9386 24.522C16.3974 25.0153 14.7608 25.1332 13.1648 24.866C11.5689 24.5987 10.0599 23.9541 8.76352 22.9858C7.46712 22.0174 6.42082 20.7533 5.71176 19.2988C3.99876 18.4649 2.55481 17.1661 1.54482 15.5507C0.534825 13.9352 -0.000493473 12.0683 1.45144e-06 10.1631ZM10.1577 2.34952C8.08541 2.34952 6.09798 3.17274 4.63264 4.63808C3.16731 6.10342 2.34409 8.09084 2.34409 10.1631C2.34409 12.2354 3.16731 14.2229 4.63264 15.6882C6.09798 17.1535 8.08541 17.9768 10.1577 17.9768C12.23 17.9768 14.2174 17.1535 15.6828 15.6882C17.1481 14.2229 17.9713 12.2354 17.9713 10.1631C17.9713 8.09084 17.1481 6.10342 15.6828 4.63808C14.2174 3.17274 12.23 2.34952 10.1577 2.34952ZM20.3154 10.1631C20.3154 9.84903 20.2998 9.53805 20.2732 9.2302C21.0195 9.95098 21.6148 10.8132 22.0243 11.7665C22.4338 12.7198 22.6493 13.7451 22.6583 14.7825C22.6673 15.82 22.4696 16.8489 22.0768 17.8092C21.6839 18.7695 21.1037 19.6419 20.3701 20.3755C19.6364 21.1091 18.764 21.6893 17.8038 22.0822C16.8435 22.4751 15.8146 22.6728 14.7771 22.6638C13.7396 22.6547 12.7143 22.4392 11.761 22.0297C10.8077 21.6202 9.94554 21.0249 9.22476 20.2787C10.6314 20.4084 12.0497 20.2433 13.389 19.7939C14.7282 19.3446 15.9591 18.6208 17.0028 17.6688C18.0465 16.7169 18.8802 15.5577 19.4506 14.2653C20.021 12.9729 20.3155 11.5758 20.3154 10.1631Z" fill="#8A52EB"/>
</svg>
