<svg width="65" height="65" viewBox="0 0 65 65" fill="none" xmlns="http://www.w3.org/2000/svg">
<circle cx="32.5" cy="32.5" r="32.5" fill="#212121"/>
<path d="M19.7868 21.4297H42.7757V33.8711H46.3125V21.4297C46.3125 19.4693 44.7263 17.875 42.7757 17.875H19.7868C17.8362 17.875 16.25 19.4693 16.25 21.4297V42.7578C16.25 44.7182 17.8362 46.3125 19.7868 46.3125H33.9338V42.7578H19.7868V21.4297Z" fill="#494949"/>
<path d="M26.4432 31.9583L21.125 39H40.625L33.5341 28.4375L28.2159 35.4792L26.4432 31.9583Z" fill="#494949"/>
<path d="M46.0078 37.375H42.5547V42.5547H37.375V46.0078H42.5547V51.1875H46.0078V46.0078H51.1875V42.5547H46.0078V37.375Z" fill="#494949"/>
</svg>
